<svg xmlns="http://www.w3.org/2000/svg" width="100%" viewBox="0 0 1000 680" style="background:transparent;">
  <defs>
    <pattern id="bgrid" x="0" y="0" width="40" height="40" patternUnits="userSpaceOnUse">
      <path d="M40 0L0 0 0 40" fill="none" stroke="#023e8a" stroke-width="0.4" opacity="0.18"/>
    </pattern>
    <style>
      @keyframes status-pulse { 0%,100%{opacity:.6} 50%{opacity:1} }
      @keyframes inv-blink { 0%,85%,100%{opacity:1} 90%{opacity:.3} }
      @keyframes shenron-glow { 0%,100%{opacity:.7} 50%{opacity:1} }
      @keyframes scan-line { 0%{stroke-dashoffset:0} 100%{stroke-dashoffset:-40} }
      .sp{animation:status-pulse 2.8s ease-in-out infinite}
      .ib{animation:inv-blink 3.2s ease-in-out infinite}
      .sg{animation:shenron-glow 2.4s ease-in-out infinite}
      .sl{stroke-dasharray:4 8;animation:scan-line 3s linear infinite}
    </style>
  </defs>

  <rect width="1000" height="680" fill="#000814"/>
  <rect width="1000" height="680" fill="url(#bgrid)"/>
  <rect x="0" y="0" width="1000" height="3" fill="#ffffff"/>
  <rect x="0" y="0" width="3" height="680" fill="#ffffff" opacity="0.7"/>
  <rect x="997" y="0" width="3" height="680" fill="#ffffff" opacity="0.7"/>
  <rect x="0" y="677" width="1000" height="3" fill="#ffffff"/>

  <!-- header -->
  <text x="50" y="38" font-family="'Courier New',monospace" font-size="11" fill="#00b4d8" letter-spacing="4" font-weight="bold">BLUE TEAM  //  LAYERED DEFENSE ARCHITECTURE</text>
  <text x="50" y="56" font-family="'Courier New',monospace" font-size="9" fill="#6699bb" letter-spacing="2">cut-away cross-section  ·  read bottom to top  ·  SHENRON feeds all layers</text>
  <line x1="50" y1="64" x2="950" y2="64" stroke="#00b4d8" stroke-width="0.5" opacity="0.3"/>

  <!-- LAYER DEPTH GUIDE — left margin -->
  <text x="22" y="164" font-family="'Courier New',monospace" font-size="7" fill="#023e8a" transform="rotate(-90,22,164)">SURFACE</text>
  <text x="22" y="520" font-family="'Courier New',monospace" font-size="7" fill="#023e8a" transform="rotate(-90,22,520)">FOUNDATION</text>
  <line x1="18" y1="80" x2="18" y2="640" stroke="#023e8a" stroke-width="0.8" opacity="0.4"/>
  <polygon points="18,76 21,84 15,84" fill="#00b4d8" opacity="0.5"/>

  <!-- ═══ LAYER 0 — IDENTITY ═══ -->
  <polygon points="30,80 980,80 980,170 30,170 46,125" fill="#020d1f" opacity="0.95"/>
  <polygon points="30,80 46,80 46,170 30,170" fill="#00b4d8" opacity="0.08"/>
  <rect x="30" y="80" width="950" height="2" fill="#00b4d8" opacity="0.9"/>
  <line x1="46" y1="80" x2="46" y2="170" stroke="#00b4d8" stroke-width="0.6" opacity="0.4"/>
  <!-- layer label -->
  <text x="58" y="100" font-family="'Courier New',monospace" font-size="8" fill="#00b4d8" letter-spacing="3" font-weight="bold">LAYER 0</text>
  <text x="58" y="114" font-family="'Courier New',monospace" font-size="10" fill="#ffffff" font-weight="bold">IDENTITY &amp; ZERO-TRUST</text>
  <line x1="58" y1="120" x2="300" y2="120" stroke="#00b4d8" stroke-width="0.4" opacity="0.3"/>
  <!-- tools -->
  <text x="58" y="138" font-family="'Courier New',monospace" font-size="9" fill="#caf0f8">reflexive-identity</text>
  <text x="200" y="138" font-family="'Courier New',monospace" font-size="8" fill="#6699bb">zero-trust AI agent · self-auth · priv revocation</text>
  <text x="58" y="155" font-family="'Courier New',monospace" font-size="9" fill="#caf0f8">aliasOS</text>
  <text x="200" y="155" font-family="'Courier New',monospace" font-size="8" fill="#6699bb">296 aliases · session isolation · operator hygiene</text>
  <!-- status indicators -->
  <circle cx="955" cy="110" r="4" fill="#00b4d8" class="sp"/>
  <text x="940" y="130" font-family="'Courier New',monospace" font-size="7" fill="#00b4d8" text-anchor="middle">ACTIVE</text>
  <!-- cut-away edge detail -->
  <line x1="30" y1="125" x2="46" y2="125" stroke="#00b4d8" stroke-width="0.8" opacity="0.5"/>

  <!-- ═══ LAYER 1 — DETECTION ═══ -->
  <polygon points="30,174 980,174 980,274 30,274 46,224" fill="#020d1f" opacity="0.9"/>
  <polygon points="30,174 46,174 46,274 30,274" fill="#48cae4" opacity="0.06"/>
  <rect x="30" y="174" width="950" height="2" fill="#48cae4" opacity="0.7"/>
  <line x1="46" y1="174" x2="46" y2="274" stroke="#48cae4" stroke-width="0.6" opacity="0.4"/>
  <text x="58" y="194" font-family="'Courier New',monospace" font-size="8" fill="#48cae4" letter-spacing="3" font-weight="bold">LAYER 1</text>
  <text x="58" y="208" font-family="'Courier New',monospace" font-size="10" fill="#ffffff" font-weight="bold">DETECTION &amp; HONEYPOT</text>
  <line x1="58" y1="214" x2="320" y2="214" stroke="#48cae4" stroke-width="0.4" opacity="0.3"/>
  <text x="58" y="232" font-family="'Courier New',monospace" font-size="9" fill="#caf0f8">PHANTOM</text>
  <text x="200" y="232" font-family="'Courier New',monospace" font-size="8" fill="#6699bb">fingerprints Cowrie · Kippo · OpenCanary · Thinkst +4</text>
  <text x="58" y="249" font-family="'Courier New',monospace" font-size="9" fill="#caf0f8">Decoy-Hunter</text>
  <text x="200" y="249" font-family="'Courier New',monospace" font-size="8" fill="#6699bb">attribution engine · honeypot identification</text>
  <text x="58" y="266" font-family="'Courier New',monospace" font-size="9" fill="#caf0f8">drift_orchestrator</text>
  <text x="200" y="266" font-family="'Courier New',monospace" font-size="8" fill="#6699bb">session drift monitoring · behavioral baseline</text>
  <circle cx="955" cy="210" r="4" fill="#48cae4" class="sp"/>
  <text x="940" y="228" font-family="'Courier New',monospace" font-size="7" fill="#48cae4" text-anchor="middle">ACTIVE</text>
  <line x1="30" y1="224" x2="46" y2="224" stroke="#48cae4" stroke-width="0.8" opacity="0.5"/>

  <!-- ═══ LAYER 2 — INTELLIGENCE ═══ -->
  <polygon points="30,278 980,278 980,378 30,378 46,328" fill="#020d1f" opacity="0.88"/>
  <polygon points="30,278 46,278 46,378 30,378" fill="#90e0ef" opacity="0.05"/>
  <rect x="30" y="278" width="950" height="2" fill="#90e0ef" opacity="0.6"/>
  <line x1="46" y1="278" x2="46" y2="378" stroke="#90e0ef" stroke-width="0.6" opacity="0.4"/>
  <text x="58" y="298" font-family="'Courier New',monospace" font-size="8" fill="#90e0ef" letter-spacing="3" font-weight="bold">LAYER 2</text>
  <text x="58" y="312" font-family="'Courier New',monospace" font-size="10" fill="#ffffff" font-weight="bold">THREAT INTELLIGENCE</text>
  <line x1="58" y1="318" x2="310" y2="318" stroke="#90e0ef" stroke-width="0.4" opacity="0.3"/>
  <text x="58" y="336" font-family="'Courier New',monospace" font-size="9" fill="#caf0f8">OpenSight</text>
  <text x="200" y="336" font-family="'Courier New',monospace" font-size="8" fill="#6699bb">entity extraction · typed knowledge graph · FBI corpus</text>
  <text x="58" y="353" font-family="'Courier New',monospace" font-size="9" fill="#caf0f8">botnet-hunter</text>
  <text x="200" y="353" font-family="'Courier New',monospace" font-size="8" fill="#6699bb">devto ecosystem · fake follower networks · attribution</text>
  <text x="58" y="370" font-family="'Courier New',monospace" font-size="9" fill="#caf0f8">Sigma rules</text>
  <text x="200" y="370" font-family="'Courier New',monospace" font-size="8" fill="#6699bb">detection validation · SHENRON eval pipeline</text>
  <circle cx="955" cy="314" r="4" fill="#90e0ef" class="sp"/>
  <text x="940" y="332" font-family="'Courier New',monospace" font-size="7" fill="#90e0ef" text-anchor="middle">ACTIVE</text>
  <line x1="30" y1="328" x2="46" y2="328" stroke="#90e0ef" stroke-width="0.8" opacity="0.5"/>

  <!-- ═══ LAYER 3 — SHENRON TELEMETRY CORE ═══ -->
  <polygon points="30,382 980,382 980,462 30,462 46,422" fill="#0a0a00" opacity="0.95"/>
  <polygon points="30,382 46,382 46,462 30,462" fill="#f5c518" opacity="0.08"/>
  <rect x="30" y="382" width="950" height="3" fill="#f5c518" opacity="0.9"/>
  <line x1="46" y1="382" x2="46" y2="462" stroke="#f5c518" stroke-width="0.8" opacity="0.6"/>
  <text x="58" y="402" font-family="'Courier New',monospace" font-size="8" fill="#f5c518" letter-spacing="3" font-weight="bold">LAYER 3  ◈  NEXUS</text>
  <text x="58" y="416" font-family="'Courier New',monospace" font-size="10" fill="#f5c518" font-weight="bold">SHENRON — ADVERSARIAL TELEMETRY CORE</text>
  <line x1="58" y1="422" x2="500" y2="422" stroke="#f5c518" stroke-width="0.5" opacity="0.4"/>
  <text x="58" y="438" font-family="'Courier New',monospace" font-size="9" fill="#caf0f8">49-layer mutation engine</text>
  <text x="240" y="438" font-family="'Courier New',monospace" font-size="8" fill="#c8a000">synthetic adversarial telemetry · Sigma rule eval · detection validation</text>
  <text x="58" y="454" font-family="'Courier New',monospace" font-size="8" fill="#c8a000">feeds RED offensive payloads  ←→  feeds BLUE detection layers</text>
  <!-- SHENRON glow indicator -->
  <circle cx="955" cy="412" r="6" fill="#f5c518" class="sg"/>
  <text x="940" y="434" font-family="'Courier New',monospace" font-size="7" fill="#f5c518" text-anchor="middle">NEXUS</text>
  <!-- scan line animation across shenron layer -->
  <line x1="58" y1="445" x2="900" y2="445" stroke="#f5c518" stroke-width="0.4" opacity="0.2" class="sl"/>
  <line x1="30" y1="422" x2="46" y2="422" stroke="#f5c518" stroke-width="1.2" opacity="0.8"/>

  <!-- ═══ LAYER 4 — ACTIVE INVESTIGATIONS ═══ -->
  <polygon points="30,466 980,466 980,640 30,640 46,553" fill="#010d08" opacity="0.95"/>
  <polygon points="30,466 46,466 46,640 30,640" fill="#00ff44" opacity="0.04"/>
  <rect x="30" y="466" width="950" height="2" fill="#cc2200" opacity="0.7"/>
  <line x1="46" y1="466" x2="46" y2="640" stroke="#cc2200" stroke-width="0.6" opacity="0.4"/>
  <text x="58" y="486" font-family="'Courier New',monospace" font-size="8" fill="#cc2200" letter-spacing="3" font-weight="bold">LAYER 4  //  FIELD OPS</text>
  <text x="58" y="500" font-family="'Courier New',monospace" font-size="10" fill="#ffffff" font-weight="bold">ACTIVE INVESTIGATIONS</text>
  <text x="800" y="486" font-family="'Courier New',monospace" font-size="8" fill="#6699bb" text-anchor="end">pre-registration methodology</text>
  <line x1="58" y1="506" x2="950" y2="506" stroke="#cc2200" stroke-width="0.4" opacity="0.3"/>

  <!-- INV-003 -->
  <rect x="58" y="514" width="8" height="8" fill="#6699bb"/>
  <text x="74" y="522" font-family="'Courier New',monospace" font-size="9" fill="#90e0ef" font-weight="bold">[ <tspan fill="#6699bb">CLOSED</tspan> ]</text>
  <text x="160" y="522" font-family="'Courier New',monospace" font-size="9" fill="#ffffff" font-weight="bold">INV-003</text>
  <text x="230" y="522" font-family="'Courier New',monospace" font-size="8" fill="#6699bb">nsboost.xyz / NSBoost v2  ·  32+ repos  ·  4 disclosure waves → GitHub T&amp;S</text>

  <!-- INV-004 -->
  <rect x="58" y="538" width="8" height="8" fill="#00b4d8" class="sp"/>
  <text x="74" y="546" font-family="'Courier New',monospace" font-size="9" fill="#48cae4" font-weight="bold">[ <tspan fill="#00b4d8">ACTIVE</tspan> ]</text>
  <text x="160" y="546" font-family="'Courier New',monospace" font-size="9" fill="#ffffff" font-weight="bold">INV-004</text>
  <text x="230" y="546" font-family="'Courier New',monospace" font-size="8" fill="#6699bb">Chrome extension [fkiaohmee...]  ·  payload extraction  ·  C2 enumeration ongoing</text>

  <!-- INV-005 -->
  <rect x="58" y="562" width="8" height="8" fill="#48cae4" class="ib"/>
  <text x="74" y="570" font-family="'Courier New',monospace" font-size="9" fill="#48cae4" font-weight="bold">[ <tspan fill="#48cae4">PRE-DISCLOSURE</tspan> ]</text>
  <text x="160" y="570" font-family="'Courier New',monospace" font-size="9" fill="#ffffff" font-weight="bold">INV-005</text>
  <text x="230" y="570" font-family="'Courier New',monospace" font-size="9" fill="#023e8a" font-weight="bold">[REDACTED]</text>

  <line x1="58" y1="582" x2="950" y2="582" stroke="#cc2200" stroke-width="0.3" opacity="0.2"/>

  <!-- stats row -->
  <text x="58" y="600" font-family="'Courier New',monospace" font-size="9" fill="#00b4d8" font-weight="bold">DISCLOSURE</text>
  <text x="58" y="616" font-family="'Courier New',monospace" font-size="13" fill="#ffffff" font-weight="bold">4 <tspan font-size="8" fill="#00b4d8">waves</tspan>   32+ <tspan font-size="8" fill="#00b4d8">repos</tspan>   3 <tspan font-size="8" fill="#00b4d8">active</tspan></text>

  <text x="400" y="600" font-family="'Courier New',monospace" font-size="9" fill="#00b4d8" font-weight="bold">DETECTION COVERAGE</text>
  <text x="400" y="616" font-family="'Courier New',monospace" font-size="13" fill="#ffffff" font-weight="bold">6+ <tspan font-size="8" fill="#00b4d8">honeypot types</tspan>   49 <tspan font-size="8" fill="#00b4d8">mutation layers</tspan>   52 <tspan font-size="8" fill="#00b4d8">test cases</tspan></text>

  <text x="58" y="634" font-family="'Courier New',monospace" font-size="8" fill="#6699bb">✓ pre-registered   ✓ responsible disclosure   ✓ public evidence packages</text>

  <line x1="30" y1="553" x2="46" y2="553" stroke="#cc2200" stroke-width="0.8" opacity="0.5"/>
</svg>
