<svg xmlns="http://www.w3.org/2000/svg" width="100%" viewBox="0 0 1000 340" style="background:#0d0000;">
  <rect width="100%" height="300" fill="#0d0000"/>
  <rect x="0" y="0" width="100%" height="3" fill="#8b0000" opacity="0.6"/>
  <text x="44" y="28" font-family="'Courier New',monospace" font-size="10" fill="#cc2200" letter-spacing="4" font-weight="bold">BUILD TIMELINE  &#x2014;  Apr 2025 &#x2192; May 2026</text>
  <line x1="44" y1="34" x2="816" y2="34" stroke="#8b0000" stroke-width="0.8" opacity="0.35"/>
  <line x1="44" y1="135" x2="816" y2="135" stroke="#8b0000" stroke-width="2"/>
  <line x1="44"  y1="129" x2="44"  y2="141" stroke="#8b0000" stroke-width="1.3"/>
  <text x="44"   y="155" font-family="'Courier New',monospace" font-size="8" fill="#8b0000" text-anchor="middle">APR 25</text>
  <line x1="222" y1="129" x2="222" y2="141" stroke="#ffffff" stroke-width="0.8"/>
  <text x="222"  y="155" font-family="'Courier New',monospace" font-size="8" fill="#8b0000" text-anchor="middle">JUL 25</text>
  <line x1="400" y1="129" x2="400" y2="141" stroke="#ffffff" stroke-width="0.8"/>
  <text x="400"  y="155" font-family="'Courier New',monospace" font-size="8" fill="#8b0000" text-anchor="middle">OCT 25</text>
  <line x1="578" y1="129" x2="578" y2="141" stroke="#ffffff" stroke-width="0.8"/>
  <text x="578"  y="155" font-family="'Courier New',monospace" font-size="8" fill="#8b0000" text-anchor="middle">JAN 26</text>
  <line x1="697" y1="129" x2="697" y2="141" stroke="#ffffff" stroke-width="0.8"/>
  <text x="697"  y="155" font-family="'Courier New',monospace" font-size="8" fill="#8b0000" text-anchor="middle">MAR 26</text>
  <line x1="816" y1="112" x2="816" y2="155" stroke="#f5c518" stroke-width="1.5" stroke-dasharray="3 3"/>
  <text x="816"  y="108" font-family="'Courier New',monospace" font-size="8" fill="#f5c518" text-anchor="middle" font-weight="bold">NOW</text>
  <line x1="48"  y1="135" x2="48"  y2="88" stroke="#f5c518" stroke-width="1.3"/>
  <circle cx="48" cy="135" r="4" fill="#f5c518"/>
  <text x="48"   y="82" font-family="'Courier New',monospace" font-size="9" fill="#f5c518" text-anchor="middle" font-weight="bold">LANimals</text>
  <line x1="226" y1="135" x2="226" y2="68" stroke="#cc2200" stroke-width="1.3"/>
  <circle cx="226" cy="135" r="4" fill="#cc2200"/>
  <text x="226"  y="62" font-family="'Courier New',monospace" font-size="9" fill="#cc2200" text-anchor="middle" font-weight="bold">Blackglass · OWN · pwn</text>
  <line x1="308" y1="135" x2="308" y2="36" stroke="#f5c518" stroke-width="2.2"/>
  <circle cx="308" cy="135" r="7" fill="#f5c518"/>
  <polygon points="308,29 317,43 299,43" fill="#f5c518"/>
  <text x="308"  y="22" font-family="'Courier New',monospace" font-size="10" fill="#f5c518" text-anchor="middle" font-weight="bold">SHENRON</text>
  <line x1="424" y1="135" x2="424" y2="80" stroke="#f5c518" stroke-width="1.3"/>
  <circle cx="424" cy="135" r="4" fill="#f5c518"/>
  <text x="424"  y="74" font-family="'Courier New',monospace" font-size="9" fill="#f5c518" text-anchor="middle" font-weight="bold">reflexive-id</text>
  <line x1="452" y1="135" x2="452" y2="56" stroke="#ffffff" stroke-width="1.1" opacity="0.6"/>
  <circle cx="452" cy="135" r="3" fill="#ffffff" opacity="0.6"/>
  <text x="452"  y="50" font-family="'Courier New',monospace" font-size="8" fill="#aaaaaa" text-anchor="middle">Decoy-Hunter</text>
  <line x1="710" y1="135" x2="710" y2="76" stroke="#ffffff" stroke-width="1.3" opacity="0.7"/>
  <circle cx="710" cy="135" r="4" fill="#ffffff" opacity="0.7"/>
  <text x="710"  y="70" font-family="'Courier New',monospace" font-size="9" fill="#ffffff" text-anchor="middle" font-weight="bold">OpenSight</text>
  <line x1="736" y1="135" x2="736" y2="56" stroke="#ffffff" stroke-width="1.1" opacity="0.5"/>
  <circle cx="736" cy="135" r="3" fill="#ffffff" opacity="0.5"/>
  <text x="736"  y="50" font-family="'Courier New',monospace" font-size="8" fill="#aaaaaa" text-anchor="middle">PHANTOM</text>
  <line x1="762" y1="135" x2="762" y2="76" stroke="#cc2200" stroke-width="1.3"/>
  <circle cx="762" cy="135" r="4" fill="#cc2200"/>
  <text x="762"  y="70" font-family="'Courier New',monospace" font-size="9" fill="#cc2200" text-anchor="middle" font-weight="bold">LANIMORPH</text>
  <line x1="155" y1="135" x2="155" y2="177" stroke="#f5c518" stroke-width="1.3"/>
  <circle cx="155" cy="135" r="4" fill="#f5c518"/>
  <text x="155"  y="191" font-family="'Courier New',monospace" font-size="9" fill="#f5c518" text-anchor="middle" font-weight="bold">Lune</text>
  <line x1="175" y1="135" x2="175" y2="183" stroke="#cc2200" stroke-width="1.3"/>
  <circle cx="175" cy="135" r="4" fill="#cc2200"/>
  <text x="175"  y="198" font-family="'Courier New',monospace" font-size="9" fill="#cc2200" text-anchor="middle" font-weight="bold">zer0DAY &#x26A0;</text>
  <line x1="198" y1="135" x2="198" y2="175" stroke="#cc2200" stroke-width="1.1"/>
  <circle cx="198" cy="135" r="3" fill="#cc2200" opacity="0.8"/>
  <text x="198"  y="188" font-family="'Courier New',monospace" font-size="8" fill="#cc2200" text-anchor="middle">bad_BANANA</text>
  <line x1="722" y1="135" x2="722" y2="177" stroke="#f5c518" stroke-width="1.3"/>
  <circle cx="722" cy="135" r="4" fill="#f5c518"/>
  <text x="722"  y="191" font-family="'Courier New',monospace" font-size="9" fill="#f5c518" text-anchor="middle" font-weight="bold">chain + drift_orch</text>
  <line x1="757" y1="135" x2="757" y2="183" stroke="#8b0000" stroke-width="1.1"/>
  <circle cx="757" cy="135" r="3" fill="#8b0000" opacity="0.9"/>
  <text x="757"  y="196" font-family="'Courier New',monospace" font-size="8" fill="#8b0000" text-anchor="middle">aliasOS</text>
  <line x1="813" y1="135" x2="813" y2="175" stroke="#8b0000" stroke-width="1.1"/>
  <circle cx="813" cy="135" r="3" fill="#8b0000" opacity="0.8"/>
  <text x="813"  y="188" font-family="'Courier New',monospace" font-size="8" fill="#8b0000" text-anchor="middle">botnet-hunter</text>
  <text x="44" y="228" font-family="'Courier New',monospace" font-size="9" fill="#cc2200" letter-spacing="3" font-weight="bold">VELOCITY</text>
  <rect x="44"  y="236" width="59" height="8" rx="1" fill="#8b0000" opacity="0.4"/>
  <rect x="103" y="236" width="59" height="8" rx="1" fill="#8b0000" opacity="0.4"/>
  <rect x="162" y="236" width="59" height="8" rx="1" fill="#cc2200" opacity="0.7"/>
  <rect x="221" y="236" width="59" height="8" rx="1" fill="#cc2200" opacity="0.6"/>
  <rect x="280" y="236" width="59" height="8" rx="1" fill="#f5c518" opacity="0.8"/>
  <rect x="339" y="236" width="59" height="8" rx="1" fill="#8b0000" opacity="0.3"/>
  <rect x="398" y="236" width="59" height="8" rx="1" fill="#cc2200" opacity="0.6"/>
  <rect x="457" y="236" width="59" height="8" rx="1" fill="#8b0000" opacity="0.3"/>
  <rect x="516" y="236" width="59" height="8" rx="1" fill="#8b0000" opacity="0.2"/>
  <rect x="575" y="236" width="59" height="8" rx="1" fill="#8b0000" opacity="0.2"/>
  <rect x="634" y="236" width="59" height="8" rx="1" fill="#8b0000" opacity="0.2"/>
  <rect x="693" y="236" width="59" height="8" rx="1" fill="#f5c518" opacity="0.9"/>
  <rect x="752" y="236" width="64" height="8" rx="1" fill="#f5c518" opacity="1"/>
  <text x="816" y="244" font-family="'Courier New',monospace" font-size="8" fill="#f5c518" text-anchor="end" font-weight="bold"> &#x2190; peak</text>
  <text x="44"  y="268" font-family="'Courier New',monospace" font-size="9" fill="#5a2020">13 months. 26 public repos. Accelerating.</text>
  <rect x="0" y="297" width="100%" height="3" fill="#8b0000" opacity="0.5"/>
</svg>
