<svg xmlns="http://www.w3.org/2000/svg" width="100%" viewBox="0 0 1000 340" style="background:#0d0000;">
  <rect width="1000" height="340" fill="#0d0000"/>
  <rect x="0" y="0" width="1000" height="3" fill="#ffffff"/>
  <rect x="0" y="0" width="3" height="340" fill="#ffffff" opacity="0.7"/>
  <rect x="997" y="0" width="3" height="340" fill="#ffffff" opacity="0.7"/>
  <rect x="0" y="337" width="1000" height="3" fill="#ffffff"/>
  <text x="50" y="34" font-family="'Courier New',monospace" font-size="11" fill="#cc2200" letter-spacing="4" font-weight="bold">BUILD TIMELINE  &#x2014;  Apr 2025 &#x2192; May 2026</text>
  <line x1="50" y1="42" x2="950" y2="42" stroke="#ffffff" stroke-width="0.5" opacity="0.15"/>
  <line x1="50" y1="148" x2="950" y2="148" stroke="#ffffff" stroke-width="1.5" opacity="0.4"/>
  <line x1="50"  y1="142" x2="50"  y2="154" stroke="#8b0000" stroke-width="1.3"/>
  <text x="50"   y="170" font-family="'Courier New',monospace" font-size="8" fill="#888888" text-anchor="middle">APR 25</text>
  <line x1="258" y1="142" x2="258" y2="154" stroke="#8b0000" stroke-width="1"/>
  <text x="258"  y="170" font-family="'Courier New',monospace" font-size="8" fill="#888888" text-anchor="middle">JUL 25</text>
  <line x1="465" y1="142" x2="465" y2="154" stroke="#8b0000" stroke-width="1"/>
  <text x="465"  y="170" font-family="'Courier New',monospace" font-size="8" fill="#888888" text-anchor="middle">OCT 25</text>
  <line x1="673" y1="142" x2="673" y2="154" stroke="#8b0000" stroke-width="1"/>
  <text x="673"  y="170" font-family="'Courier New',monospace" font-size="8" fill="#888888" text-anchor="middle">JAN 26</text>
  <line x1="811" y1="142" x2="811" y2="154" stroke="#8b0000" stroke-width="1"/>
  <text x="811"  y="170" font-family="'Courier New',monospace" font-size="8" fill="#888888" text-anchor="middle">MAR 26</text>
  <line x1="950" y1="124" x2="950" y2="168" stroke="#f5c518" stroke-width="1.5" stroke-dasharray="3 3"/>
  <text x="950"  y="120" font-family="'Courier New',monospace" font-size="8" fill="#f5c518" text-anchor="middle" font-weight="bold">NOW</text>
  <line x1="55"  y1="148" x2="55"  y2="96" stroke="#f5c518" stroke-width="1.3"/>
  <circle cx="55" cy="148" r="4" fill="#f5c518"/>
  <text x="55"   y="90" font-family="'Courier New',monospace" font-size="9" fill="#f5c518" text-anchor="middle" font-weight="bold">LANimals</text>
  <line x1="262" y1="148" x2="262" y2="76" stroke="#cc2200" stroke-width="1.3"/>
  <circle cx="262" cy="148" r="4" fill="#cc2200"/>
  <text x="262"  y="70" font-family="'Courier New',monospace" font-size="9" fill="#cc2200" text-anchor="middle" font-weight="bold">Blackglass · OWN · pwn</text>
  <line x1="358" y1="148" x2="358" y2="48" stroke="#f5c518" stroke-width="2.2"/>
  <circle cx="358" cy="148" r="7" fill="#f5c518"/>
  <polygon points="358,41 367,55 349,55" fill="#f5c518"/>
  <text x="358"  y="35" font-family="'Courier New',monospace" font-size="11" fill="#f5c518" text-anchor="middle" font-weight="bold">SHENRON</text>
  <line x1="492" y1="148" x2="492" y2="90" stroke="#f5c518" stroke-width="1.3"/>
  <circle cx="492" cy="148" r="4" fill="#f5c518"/>
  <text x="492"  y="84" font-family="'Courier New',monospace" font-size="9" fill="#f5c518" text-anchor="middle" font-weight="bold">reflexive-id</text>
  <line x1="524" y1="148" x2="524" y2="66" stroke="#ffffff" stroke-width="1.1" opacity="0.6"/>
  <circle cx="524" cy="148" r="3" fill="#ffffff" opacity="0.6"/>
  <text x="524"  y="60" font-family="'Courier New',monospace" font-size="8" fill="#aaaaaa" text-anchor="middle">Decoy-Hunter</text>
  <line x1="824" y1="148" x2="824" y2="86" stroke="#ffffff" stroke-width="1.3" opacity="0.7"/>
  <circle cx="824" cy="148" r="4" fill="#ffffff" opacity="0.7"/>
  <text x="824"  y="80" font-family="'Courier New',monospace" font-size="9" fill="#ffffff" text-anchor="middle" font-weight="bold">OpenSight</text>
  <line x1="856" y1="148" x2="856" y2="66" stroke="#ffffff" stroke-width="1.1" opacity="0.5"/>
  <circle cx="856" cy="148" r="3" fill="#ffffff" opacity="0.5"/>
  <text x="856"  y="60" font-family="'Courier New',monospace" font-size="8" fill="#aaaaaa" text-anchor="middle">PHANTOM</text>
  <line x1="886" y1="148" x2="886" y2="86" stroke="#cc2200" stroke-width="1.3"/>
  <circle cx="886" cy="148" r="4" fill="#cc2200"/>
  <text x="886"  y="80" font-family="'Courier New',monospace" font-size="9" fill="#cc2200" text-anchor="middle" font-weight="bold">LANIMORPH</text>
  <line x1="180" y1="148" x2="180" y2="196" stroke="#f5c518" stroke-width="1.3"/>
  <circle cx="180" cy="148" r="4" fill="#f5c518"/>
  <text x="180"  y="210" font-family="'Courier New',monospace" font-size="9" fill="#f5c518" text-anchor="middle" font-weight="bold">Lune</text>
  <line x1="202" y1="148" x2="202" y2="214" stroke="#cc2200" stroke-width="1.3"/>
  <circle cx="202" cy="148" r="4" fill="#cc2200"/>
  <text x="202"  y="228" font-family="'Courier New',monospace" font-size="9" fill="#cc2200" text-anchor="middle" font-weight="bold">zer0DAY &#x26A0;</text>
  <line x1="228" y1="148" x2="228" y2="196" stroke="#cc2200" stroke-width="1.1"/>
  <circle cx="228" cy="148" r="3" fill="#cc2200" opacity="0.8"/>
  <text x="228"  y="209" font-family="'Courier New',monospace" font-size="8" fill="#cc2200" text-anchor="middle">bad_BANANA</text>
  <line x1="838" y1="148" x2="838" y2="196" stroke="#f5c518" stroke-width="1.3"/>
  <circle cx="838" cy="148" r="4" fill="#f5c518"/>
  <text x="838"  y="210" font-family="'Courier New',monospace" font-size="9" fill="#f5c518" text-anchor="middle" font-weight="bold">chain + drift_orch</text>
  <line x1="878" y1="148" x2="878" y2="196" stroke="#8b0000" stroke-width="1.1"/>
  <circle cx="878" cy="148" r="3" fill="#8b0000" opacity="0.9"/>
  <text x="878"  y="209" font-family="'Courier New',monospace" font-size="8" fill="#8b0000" text-anchor="middle">aliasOS</text>
  <line x1="946" y1="148" x2="946" y2="196" stroke="#8b0000" stroke-width="1.1"/>
  <circle cx="946" cy="148" r="3" fill="#8b0000" opacity="0.8"/>
  <text x="946"  y="209" font-family="'Courier New',monospace" font-size="8" fill="#8b0000" text-anchor="middle">botnet-hunter</text>
  <text x="50" y="252" font-family="'Courier New',monospace" font-size="9" fill="#cc2200" letter-spacing="3" font-weight="bold">VELOCITY</text>
  <rect x="50"  y="260" width="69" height="9" rx="1" fill="#8b0000" opacity="0.4"/>
  <rect x="119" y="260" width="69" height="9" rx="1" fill="#8b0000" opacity="0.4"/>
  <rect x="188" y="260" width="69" height="9" rx="1" fill="#cc2200" opacity="0.7"/>
  <rect x="257" y="260" width="69" height="9" rx="1" fill="#cc2200" opacity="0.6"/>
  <rect x="326" y="260" width="69" height="9" rx="1" fill="#f5c518" opacity="0.8"/>
  <rect x="395" y="260" width="69" height="9" rx="1" fill="#8b0000" opacity="0.3"/>
  <rect x="464" y="260" width="69" height="9" rx="1" fill="#cc2200" opacity="0.6"/>
  <rect x="533" y="260" width="69" height="9" rx="1" fill="#8b0000" opacity="0.3"/>
  <rect x="602" y="260" width="69" height="9" rx="1" fill="#8b0000" opacity="0.2"/>
  <rect x="671" y="260" width="69" height="9" rx="1" fill="#8b0000" opacity="0.2"/>
  <rect x="740" y="260" width="69" height="9" rx="1" fill="#8b0000" opacity="0.2"/>
  <rect x="809" y="260" width="69" height="9" rx="1" fill="#f5c518" opacity="0.9"/>
  <rect x="878" y="260" width="72" height="9" rx="1" fill="#f5c518" opacity="1"/>
  <text x="950" y="269" font-family="'Courier New',monospace" font-size="8" fill="#f5c518" text-anchor="end" font-weight="bold">&#x2190; peak</text>
  <text x="50"  y="300" font-family="'Courier New',monospace" font-size="9" fill="#5a2020">13 months. 26 public repos. Accelerating.</text>
</svg>